<svg width="22" height="31" viewBox="0 0 22 31" fill="none" xmlns="http://www.w3.org/2000/svg">
<path d="M4.182 30V12.452L2.009 12.1855C1.69467 12.1172 1.435 12.0078 1.23 11.8575C1.03867 11.6935 0.943 11.4612 0.943 11.1605V9.5H4.182V7.614C4.182 6.425 4.35283 5.36583 4.6945 4.4365C5.03617 3.50717 5.52133 2.72133 6.15 2.079C6.79233 1.423 7.55767 0.930999 8.446 0.603C9.348 0.261332 10.3593 0.0904977 11.48 0.0904977C12.423 0.0904977 13.2908 0.227165 14.0835 0.5005L14.0015 2.5095C13.9878 2.68717 13.9332 2.82383 13.8375 2.9195C13.7418 3.0015 13.612 3.063 13.448 3.104C13.2977 3.145 13.1063 3.17233 12.874 3.186C12.6553 3.186 12.4162 3.186 12.1565 3.186C11.5415 3.186 10.9812 3.26117 10.4755 3.4115C9.96983 3.56183 9.53933 3.81467 9.184 4.17C8.82867 4.52533 8.55533 4.99683 8.364 5.5845C8.17267 6.1585 8.077 6.876 8.077 7.737V9.5H13.9195V12.411H8.2V30H4.182ZM15.6857 27.6015C15.6857 27.2325 15.754 26.884 15.8907 26.556C16.0274 26.228 16.2119 25.941 16.4442 25.695C16.6902 25.449 16.9772 25.2577 17.3052 25.121C17.6332 24.9707 17.9885 24.8955 18.3712 24.8955C18.7402 24.8955 19.0887 24.9707 19.4167 25.121C19.7447 25.2577 20.0317 25.449 20.2777 25.695C20.5237 25.941 20.715 26.228 20.8517 26.556C21.002 26.884 21.0772 27.2325 21.0772 27.6015C21.0772 27.9842 21.002 28.3395 20.8517 28.6675C20.715 28.9955 20.5237 29.2825 20.2777 29.5285C20.0317 29.7745 19.7447 29.9658 19.4167 30.1025C19.0887 30.2392 18.7402 30.3075 18.3712 30.3075C17.9885 30.3075 17.6332 30.2392 17.3052 30.1025C16.9772 29.9658 16.6902 29.7745 16.4442 29.5285C16.2119 29.2825 16.0274 28.9955 15.8907 28.6675C15.754 28.3395 15.6857 27.9842 15.6857 27.6015Z" fill="white"/>
</svg>
