<svg width="76" height="32" viewBox="0 0 76 32" fill="none" xmlns="http://www.w3.org/2000/svg">
<path d="M4.15585 11.0954C3.4208 11.0954 2.79177 10.9399 2.26875 10.6289C1.74574 10.318 1.34288 9.87622 1.06017 9.30374C0.784522 8.73125 0.646701 8.04921 0.646701 7.25762C0.646701 6.47309 0.784522 5.79459 1.06017 5.2221C1.34288 4.64961 1.74574 4.20787 2.26875 3.89689C2.79177 3.58591 3.4208 3.43042 4.15585 3.43042C4.59405 3.43042 5.01105 3.49403 5.40684 3.62125C5.80264 3.74847 6.14543 3.9287 6.4352 4.16193C6.55536 4.24675 6.6225 4.34569 6.63664 4.45878C6.65784 4.57186 6.64017 4.67435 6.58363 4.76623C6.52709 4.85104 6.44581 4.90758 6.33979 4.93585C6.24084 4.95706 6.12776 4.92172 6.00054 4.82984C5.49872 4.42697 4.8909 4.22554 4.17705 4.22554C3.33599 4.22554 2.69282 4.49058 2.24755 5.02067C1.80228 5.55075 1.57965 6.2964 1.57965 7.25762C1.57965 8.2259 1.80228 8.97508 2.24755 9.50517C2.69282 10.0352 3.33599 10.3003 4.17705 10.3003C4.8909 10.3003 5.50579 10.0953 6.02174 9.68539C6.14896 9.60058 6.26204 9.56878 6.36099 9.58998C6.46701 9.61118 6.54475 9.66419 6.59423 9.749C6.65077 9.83382 6.67197 9.92923 6.65784 10.0352C6.6437 10.1413 6.58363 10.2367 6.47761 10.3215C6.1737 10.5759 5.82384 10.7703 5.42805 10.9046C5.03225 11.0318 4.60819 11.0954 4.15585 11.0954ZM8.37373 11.0742C8.08395 11.0742 7.93907 10.9258 7.93907 10.6289V6.20805C7.93907 5.91827 8.07689 5.77338 8.35253 5.77338C8.63524 5.77338 8.7766 5.91827 8.7766 6.20805V6.76994C8.91795 6.44482 9.13705 6.19745 9.4339 6.02782C9.73074 5.85113 10.0841 5.75571 10.4941 5.74158C10.7202 5.72038 10.8404 5.83346 10.8545 6.08083C10.8757 6.3282 10.7485 6.46603 10.4729 6.4943L10.3032 6.5155C9.81556 6.55791 9.4445 6.7134 9.19006 6.98197C8.93562 7.24348 8.8084 7.60394 8.8084 8.06334V10.6289C8.8084 10.9258 8.66351 11.0742 8.37373 11.0742ZM13.9983 11.0954C13.1855 11.0954 12.5424 10.8586 12.0688 10.3851C11.5953 9.9045 11.3585 9.25426 11.3585 8.4344C11.3585 7.90432 11.4645 7.43784 11.6766 7.03498C11.8886 6.62505 12.1784 6.31053 12.5459 6.09143C12.9205 5.86527 13.3516 5.75218 13.8393 5.75218C14.539 5.75218 15.0868 5.97835 15.4826 6.43069C15.8784 6.87596 16.0762 7.49085 16.0762 8.27537C16.0762 8.49448 15.9526 8.60403 15.7052 8.60403H12.196C12.2243 9.19065 12.3939 9.63945 12.7049 9.95044C13.0159 10.2544 13.447 10.4063 13.9983 10.4063C14.2316 10.4063 14.4683 10.378 14.7086 10.3215C14.9489 10.2579 15.1822 10.1483 15.4083 9.99284C15.5709 9.88683 15.7052 9.86562 15.8112 9.92923C15.9243 9.99284 15.9808 10.0918 15.9808 10.2261C15.9879 10.3533 15.9172 10.4664 15.7688 10.5653C15.5356 10.735 15.2564 10.8657 14.9313 10.9576C14.6132 11.0495 14.3022 11.0954 13.9983 11.0954ZM13.8605 6.38828C13.3728 6.38828 12.9876 6.54024 12.7049 6.84415C12.4222 7.14807 12.2561 7.54739 12.2066 8.04214H15.3341C15.3129 7.51912 15.1751 7.11273 14.9207 6.82295C14.6733 6.53317 14.3199 6.38828 13.8605 6.38828ZM18.9411 11.0954C18.5877 11.0954 18.2697 11.0283 17.9869 10.894C17.7113 10.7526 17.4922 10.5618 17.3296 10.3215C17.1671 10.0812 17.0858 9.81261 17.0858 9.51577C17.0858 9.14118 17.1812 8.84433 17.3721 8.62523C17.57 8.40613 17.8915 8.25064 18.3368 8.15876C18.7891 8.05981 19.404 8.01033 20.1815 8.01033H20.5207V7.68168C20.5207 7.24348 20.4289 6.92896 20.2451 6.73813C20.0684 6.54024 19.7822 6.44129 19.3864 6.44129C19.139 6.44129 18.8881 6.47309 18.6336 6.5367C18.3863 6.60031 18.1283 6.7028 17.8597 6.84415C17.7396 6.90776 17.6371 6.9219 17.5523 6.88656C17.4745 6.84415 17.418 6.78054 17.3827 6.69573C17.3544 6.60385 17.3544 6.51197 17.3827 6.42009C17.418 6.32114 17.4887 6.24692 17.5947 6.19745C17.8986 6.04196 18.2025 5.92888 18.5064 5.8582C18.8174 5.78752 19.1107 5.75218 19.3864 5.75218C20.0507 5.75218 20.5419 5.91474 20.86 6.23986C21.1851 6.56497 21.3477 7.07032 21.3477 7.75589V10.6289C21.3477 10.9258 21.2169 11.0742 20.9554 11.0742C20.6798 11.0742 20.5419 10.9258 20.5419 10.6289V10.1095C20.4077 10.4134 20.1992 10.6537 19.9165 10.8304C19.6408 11.0071 19.3157 11.0954 18.9411 11.0954ZM19.0789 10.4487C19.503 10.4487 19.8493 10.3038 20.1179 10.014C20.3865 9.7172 20.5207 9.34261 20.5207 8.89027V8.57222H20.1921C19.6196 8.57222 19.1673 8.60049 18.8351 8.65703C18.51 8.70651 18.2803 8.79839 18.146 8.93268C18.0188 9.0599 17.9551 9.23659 17.9551 9.46276C17.9551 9.75254 18.0541 9.98931 18.252 10.1731C18.457 10.3568 18.7326 10.4487 19.0789 10.4487ZM25.0081 11.0954C24.4003 11.0954 23.9444 10.9364 23.6405 10.6183C23.3366 10.2932 23.1847 9.82675 23.1847 9.21892V6.5155H22.4743C22.227 6.5155 22.1033 6.40242 22.1033 6.17625C22.1033 5.95715 22.227 5.8476 22.4743 5.8476H23.1847V4.62841C23.1847 4.33863 23.3295 4.19374 23.6193 4.19374C23.902 4.19374 24.0434 4.33863 24.0434 4.62841V5.8476H25.3792C25.6266 5.8476 25.7503 5.95715 25.7503 6.17625C25.7503 6.40242 25.6266 6.5155 25.3792 6.5155H24.0434V9.13411C24.0434 9.53697 24.1282 9.84442 24.2978 10.0565C24.4675 10.2614 24.7431 10.3639 25.1248 10.3639C25.259 10.3639 25.3721 10.3498 25.464 10.3215C25.5559 10.2932 25.6372 10.2791 25.7079 10.2791C25.7715 10.272 25.8245 10.2932 25.8669 10.3427C25.9093 10.3922 25.9305 10.477 25.9305 10.5971C25.9305 10.682 25.9128 10.7597 25.8775 10.8304C25.8492 10.9011 25.7962 10.9505 25.7185 10.9788C25.6336 11.0071 25.5206 11.0318 25.3792 11.053C25.2449 11.0813 25.1212 11.0954 25.0081 11.0954ZM28.9173 11.0954C28.1045 11.0954 27.4613 10.8586 26.9878 10.3851C26.5142 9.9045 26.2774 9.25426 26.2774 8.4344C26.2774 7.90432 26.3835 7.43784 26.5955 7.03498C26.8075 6.62505 27.0973 6.31053 27.4648 6.09143C27.8394 5.86527 28.2706 5.75218 28.7582 5.75218C29.4579 5.75218 30.0057 5.97835 30.4015 6.43069C30.7973 6.87596 30.9952 7.49085 30.9952 8.27537C30.9952 8.49448 30.8715 8.60403 30.6241 8.60403H27.115C27.1432 9.19065 27.3129 9.63945 27.6239 9.95044C27.9348 10.2544 28.366 10.4063 28.9173 10.4063C29.1505 10.4063 29.3873 10.378 29.6276 10.3215C29.8679 10.2579 30.1011 10.1483 30.3273 9.99284C30.4898 9.88683 30.6241 9.86562 30.7301 9.92923C30.8432 9.99284 30.8998 10.0918 30.8998 10.2261C30.9068 10.3533 30.8362 10.4664 30.6877 10.5653C30.4545 10.735 30.1753 10.8657 29.8502 10.9576C29.5322 11.0495 29.2212 11.0954 28.9173 11.0954ZM28.7794 6.38828C28.2918 6.38828 27.9066 6.54024 27.6239 6.84415C27.3411 7.14807 27.175 7.54739 27.1256 8.04214H30.2531C30.2319 7.51912 30.094 7.11273 29.8396 6.82295C29.5922 6.53317 29.2388 6.38828 28.7794 6.38828ZM34.1993 11.0954C33.7399 11.0954 33.337 10.9859 32.9907 10.7668C32.6514 10.5477 32.3864 10.2402 32.1956 9.84442C32.0118 9.44156 31.9199 8.96802 31.9199 8.4238C31.9199 7.87251 32.0118 7.39897 32.1956 7.00318C32.3864 6.60031 32.6514 6.29287 32.9907 6.08083C33.337 5.86173 33.7399 5.75218 34.1993 5.75218C34.6021 5.75218 34.9555 5.84053 35.2594 6.01722C35.5704 6.19392 35.8001 6.43775 35.9486 6.74874V3.88629C35.9486 3.59651 36.0934 3.45162 36.3832 3.45162C36.6659 3.45162 36.8073 3.59651 36.8073 3.88629V10.6289C36.8073 10.9258 36.6659 11.0742 36.3832 11.0742C36.1005 11.0742 35.9592 10.9258 35.9592 10.6289V10.0777C35.8037 10.3957 35.5704 10.6466 35.2594 10.8304C34.9555 11.0071 34.6021 11.0954 34.1993 11.0954ZM34.3795 10.4063C34.8601 10.4063 35.2453 10.2367 35.5351 9.89743C35.8249 9.55111 35.9698 9.0599 35.9698 8.4238C35.9698 7.78063 35.8249 7.28942 35.5351 6.95017C35.2453 6.61092 34.8601 6.44129 34.3795 6.44129C33.8918 6.44129 33.5031 6.61092 33.2133 6.95017C32.9306 7.28942 32.7893 7.78063 32.7893 8.4238C32.7893 9.0599 32.9306 9.55111 33.2133 9.89743C33.5031 10.2367 33.8918 10.4063 34.3795 10.4063ZM43.7601 11.0954C43.3572 11.0954 43.0003 11.0071 42.6893 10.8304C42.3783 10.6466 42.1486 10.3957 42.0002 10.0777V10.6289C42.0002 10.9258 41.8588 11.0742 41.5761 11.0742C41.2934 11.0742 41.1521 10.9258 41.1521 10.6289V3.88629C41.1521 3.59651 41.2934 3.45162 41.5761 3.45162C41.8659 3.45162 42.0108 3.59651 42.0108 3.88629V6.73813C42.1592 6.43422 42.3889 6.19392 42.6999 6.01722C43.0109 5.84053 43.3643 5.75218 43.7601 5.75218C44.2195 5.75218 44.6188 5.86173 44.9581 6.08083C45.3044 6.29287 45.5694 6.60031 45.7532 7.00318C45.944 7.39897 46.0394 7.87251 46.0394 8.4238C46.0394 8.96802 45.944 9.44156 45.7532 9.84442C45.5694 10.2402 45.3044 10.5477 44.9581 10.7668C44.6188 10.9859 44.2195 11.0954 43.7601 11.0954ZM43.5798 10.4063C44.0604 10.4063 44.4456 10.2367 44.7354 9.89743C45.0252 9.55111 45.1701 9.0599 45.1701 8.4238C45.1701 7.78063 45.0252 7.28942 44.7354 6.95017C44.4456 6.61092 44.0604 6.44129 43.5798 6.44129C43.0992 6.44129 42.714 6.61092 42.4243 6.95017C42.1345 7.28942 41.9896 7.78063 41.9896 8.4238C41.9896 9.0599 42.1345 9.55111 42.4243 9.89743C42.714 10.2367 43.0992 10.4063 43.5798 10.4063ZM48.4054 12.9825C48.2429 12.9825 48.1333 12.9189 48.0768 12.7917C48.0202 12.6715 48.0238 12.5337 48.0874 12.3782L48.7341 10.9152L46.7834 6.37768C46.7127 6.21512 46.7091 6.07376 46.7728 5.95361C46.8434 5.83346 46.9742 5.77338 47.165 5.77338C47.3629 5.77338 47.5078 5.88647 47.5997 6.11264L49.2005 10.0246L50.812 6.11264C50.8685 5.98542 50.9286 5.89707 50.9922 5.8476C51.0558 5.79812 51.1477 5.77338 51.2679 5.77338C51.4304 5.77338 51.54 5.83346 51.5965 5.95361C51.6531 6.07376 51.6495 6.21159 51.5859 6.36708L48.8719 12.6433C48.8153 12.7705 48.7517 12.8588 48.6811 12.9083C48.6174 12.9578 48.5256 12.9825 48.4054 12.9825Z" fill="white"/>
<path d="M58.8507 31.9565H56.1884V19.4426H58.8507V31.9565Z" fill="white"/>
<path d="M5.77868 22.0085C5.36706 22.0026 4.95883 22.0875 4.58027 22.2579C4.20171 22.4283 3.86122 22.6804 3.58072 22.9978C2.98221 23.6502 2.68296 24.5525 2.68296 25.6941C2.68296 26.8357 2.98221 27.7598 3.59104 28.423C3.87586 28.7443 4.22128 28.9992 4.60513 29.1714C4.98898 29.3437 5.40278 29.4295 5.81996 29.4233C6.60421 29.4233 7.23367 29.195 7.70835 28.7492C8.14965 28.3438 8.47485 27.8166 8.64739 27.2271L11.0001 28.1295C10.6906 29.1841 10.0921 30.0974 9.20462 30.8584C8.31718 31.6195 7.1924 32 5.81996 32C4.16891 32 2.78615 31.402 1.67169 30.1952C0.55723 28.9884 0 27.488 0 25.6941C0 23.8785 0.546911 22.3781 1.65105 21.193C2.75519 20.008 4.11731 19.41 5.75805 19.41C7.16144 19.41 8.30686 19.7905 9.1943 20.5516C10.0357 21.2483 10.6403 22.2133 10.9176 23.3022L8.51324 24.2264C8.36888 23.6244 8.06037 23.0801 7.6258 22.6608C7.17279 22.2259 6.56397 22.0085 5.77868 22.0085Z" fill="white"/>
<path d="M15.4177 28.3904C15.7144 28.7067 16.0675 28.958 16.4568 29.1299C16.846 29.3017 17.2637 29.3907 17.6858 29.3917C18.1078 29.3927 18.5259 29.3057 18.9159 29.1358C19.3059 28.9658 19.6601 28.7162 19.9581 28.4013C20.5773 27.7381 20.8868 26.8248 20.8868 25.6398C20.8868 24.4764 20.5773 23.5741 19.9581 22.9217C19.3524 22.2946 18.5371 21.9433 17.6879 21.9433C16.8387 21.9433 16.0235 22.2946 15.4177 22.9217C14.7986 23.5741 14.489 24.4764 14.489 25.6398C14.489 26.8031 14.7986 27.7272 15.4177 28.3904ZM17.6879 19.41C19.4112 19.41 20.8353 19.9971 21.9497 21.1713C23.0642 22.3455 23.6317 23.835 23.6317 25.6506C23.6317 27.4663 23.0745 28.9558 21.9497 30.1409C20.8249 31.3259 19.4112 31.913 17.6879 31.913C15.9853 31.913 14.5716 31.3259 13.4468 30.1409C12.322 28.9558 11.7648 27.4554 11.7648 25.6506C11.7648 23.8459 12.322 22.3564 13.4468 21.1713C14.5716 19.9862 15.975 19.41 17.6879 19.41Z" fill="white"/>
<path d="M30.5765 19.4861V22.3455C30.2861 22.2986 29.993 22.2731 29.6993 22.2694C27.6768 22.2694 26.6758 23.3131 26.6758 25.6289V31.913H23.9929V19.4426H26.6036V21.4431C26.8603 20.8134 27.3062 20.2901 27.8729 19.9536C28.4772 19.5843 29.1659 19.3963 29.8644 19.41C30.1037 19.4078 30.3425 19.4334 30.5765 19.4861Z" fill="white"/>
<path d="M34.2397 24.3677H40.2145C40.205 24.0159 40.1278 23.6697 39.9877 23.3501C39.8476 23.0306 39.6474 22.7443 39.3993 22.5086C38.8936 22.0085 38.161 21.7584 37.2116 21.7584C36.3448 21.7584 35.6431 22.0193 35.1169 22.5412C34.5906 23.0631 34.2913 23.6763 34.2397 24.3677ZM40.5344 27.4337L42.98 28.1839C42.6291 29.2602 41.979 30.1517 41.0194 30.8584C40.0597 31.5651 38.8833 31.913 37.4799 31.913C35.7463 31.913 34.281 31.3368 33.0737 30.1952C31.8663 29.0536 31.2575 27.5207 31.2575 25.5963C31.2575 23.7915 31.8457 22.302 33.0221 21.1496C34.1373 20.0162 35.6313 19.3912 37.1807 19.41C39.0484 19.41 40.5034 19.9645 41.556 21.0626C42.6085 22.1607 43.1337 23.6502 43.1337 25.5245C43.1337 26.0246 43.1131 26.3182 43.0615 26.416H34.1665C34.1776 26.8367 34.2736 27.2501 34.4479 27.6287C34.6223 28.0074 34.871 28.3426 35.1777 28.6122C35.8204 29.1919 36.6434 29.5016 37.4892 29.482C39.0484 29.4885 40.07 28.8036 40.5344 27.4337Z" fill="white"/>
<path d="M46.4266 31.9565H43.7023V14H46.4472V21.23C46.7361 20.7299 47.2108 20.3059 47.8712 19.9688C48.5804 19.6162 49.3574 19.4414 50.1414 19.4578C51.8441 19.4578 53.1752 20.0341 54.1349 21.1974C55.0946 22.3607 55.5693 23.8393 55.5693 25.6441C55.5693 27.4815 55.0636 28.9819 54.0627 30.1669C53.0617 31.352 51.7202 31.9282 50.0486 31.9282C48.3769 31.9282 47.1695 31.3085 46.4266 30.0582V31.9565ZM51.8647 28.4013C52.4529 27.7272 52.7418 26.814 52.7418 25.6615C52.7418 24.5091 52.4529 23.6067 51.875 22.9435C51.2972 22.2803 50.5336 21.9541 49.5842 21.9541C48.6658 21.9541 47.9125 22.2803 47.314 22.9435C46.7155 23.6067 46.4266 24.5091 46.4266 25.6615C46.4266 26.814 46.7258 27.7055 47.314 28.3904C47.9022 29.0754 48.6658 29.4124 49.5842 29.4124C50.5232 29.4124 51.2765 29.0754 51.8647 28.4013Z" fill="white"/>
<path d="M71.44 31.9456H59.6969V29.4885L67.1163 21.9215H59.5731V19.4426H71.4194V21.828L63.9071 29.4603H71.44V31.95V31.9456Z" fill="white"/>
<path d="M72.7502 31.4251C72.5721 31.2433 72.4314 31.0253 72.3368 30.7846C72.2423 30.5438 72.1958 30.2854 72.2003 30.0253C72.1957 29.7635 72.2421 29.5035 72.3366 29.2611C72.4312 29.0187 72.5719 28.7988 72.7502 28.615C72.9217 28.4247 73.1297 28.2743 73.3605 28.1735C73.5913 28.0727 73.8398 28.0238 74.0899 28.0299C74.5962 28.0305 75.0816 28.2409 75.4396 28.615C75.7976 28.989 75.999 29.4962 75.9995 30.0253C76.0054 30.2866 75.9586 30.5463 75.8622 30.7875C75.7657 31.0286 75.6217 31.2459 75.4396 31.4251C75.2631 31.6107 75.0526 31.7572 74.8207 31.8559C74.5888 31.9546 74.3403 32.0035 74.0899 31.9997C73.8409 32.0044 73.5936 31.9559 73.3632 31.8571C73.1329 31.7583 72.9242 31.6113 72.7502 31.4251V31.4251Z" fill="#BFBFBF"/>
</svg>
