<svg width="121" height="32" viewBox="0 0 121 32" fill="none" xmlns="http://www.w3.org/2000/svg">
<path d="M4.2025 31V13.452L2.0295 13.1855C1.71517 13.1172 1.4555 13.0078 1.2505 12.8575C1.05917 12.6935 0.9635 12.4612 0.9635 12.1605V10.5H4.2025V9.4955C4.2025 8.2245 4.40067 7.056 4.797 5.99C5.207 4.91033 5.81517 3.981 6.6215 3.202C7.4415 2.423 8.45283 1.82166 9.6555 1.398C10.8718 0.960665 12.2932 0.741999 13.9195 0.741999C14.4388 0.741999 14.9855 0.776165 15.5595 0.844498C16.1335 0.912832 16.6187 1.01533 17.015 1.152L16.8715 3.243C16.8442 3.51633 16.6733 3.65983 16.359 3.6735C16.0447 3.68717 15.6073 3.694 15.047 3.694C13.8033 3.694 12.7442 3.817 11.8695 4.063C10.9948 4.309 10.2773 4.678 9.717 5.17C9.15667 5.662 8.74667 6.28383 8.487 7.0355C8.22733 7.7735 8.0975 8.6345 8.0975 9.6185V10.5H20.7665V31H16.7485V13.411H8.2205V31H4.2025ZM41.7832 31V13.411H31.8202V25.6085C31.8202 26.4285 32.0183 27.0435 32.4147 27.4535C32.8247 27.8498 33.344 28.048 33.9727 28.048C34.3417 28.048 34.656 28.0002 34.9157 27.9045C35.189 27.8088 35.4213 27.7063 35.6127 27.597C35.804 27.474 35.968 27.3647 36.1047 27.269C36.2413 27.1733 36.3643 27.1255 36.4737 27.1255C36.6103 27.1255 36.7128 27.1597 36.7812 27.228C36.8632 27.2827 36.9452 27.3783 37.0272 27.515L38.2162 29.442C37.5602 30.0433 36.7812 30.508 35.8792 30.836C34.9772 31.164 34.041 31.328 33.0707 31.328C31.3897 31.328 30.0913 30.8565 29.1757 29.9135C28.2737 28.9705 27.8227 27.6243 27.8227 25.875V13.411H25.4037C25.1713 13.411 24.9732 13.3427 24.8092 13.206C24.6588 13.0557 24.5837 12.837 24.5837 12.55V10.9305L27.9662 10.459L28.8682 4.2475C28.9228 4.01517 29.0253 3.8375 29.1757 3.7145C29.3397 3.57783 29.5447 3.5095 29.7907 3.5095H31.8202V10.5H41.7832V8.614C41.7832 7.425 41.954 6.36583 42.2957 5.4365C42.6373 4.50717 43.1225 3.72133 43.7512 3.079C44.3935 2.423 45.1657 1.931 46.0677 1.603C46.9697 1.26133 47.981 1.0905 49.1017 1.0905C50.0173 1.0905 50.8852 1.22717 51.7052 1.5005L51.6027 3.5095C51.589 3.68717 51.5343 3.82383 51.4387 3.9195C51.3567 4.0015 51.2337 4.063 51.0697 4.104C50.9057 4.145 50.7143 4.17233 50.4957 4.186C50.277 4.186 50.031 4.186 49.7577 4.186C49.1427 4.186 48.5823 4.26117 48.0767 4.4115C47.571 4.56183 47.1405 4.81467 46.7852 5.17C46.4298 5.52533 46.1565 5.99683 45.9652 6.5845C45.7738 7.1585 45.6782 7.876 45.6782 8.737V10.5H51.5207V13.411H45.8012V31H41.7832ZM63.1352 9.844C64.6659 9.844 66.0462 10.0968 67.2762 10.6025C68.5199 11.0945 69.5722 11.812 70.4332 12.755C71.3079 13.6843 71.9775 14.8118 72.4422 16.1375C72.9069 17.4495 73.1392 18.9255 73.1392 20.5655C73.1392 22.2055 72.9069 23.6883 72.4422 25.014C71.9775 26.3397 71.3079 27.4672 70.4332 28.3965C69.5722 29.3258 68.5199 30.0433 67.2762 30.549C66.0462 31.041 64.6659 31.287 63.1352 31.287C61.5909 31.287 60.1969 31.041 58.9532 30.549C57.7232 30.0433 56.6709 29.3258 55.7962 28.3965C54.9215 27.4672 54.245 26.3397 53.7667 25.014C53.302 23.6883 53.0697 22.2055 53.0697 20.5655C53.0697 18.9255 53.302 17.4495 53.7667 16.1375C54.245 14.8118 54.9215 13.6843 55.7962 12.755C56.6709 11.812 57.7232 11.0945 58.9532 10.6025C60.1969 10.0968 61.5909 9.844 63.1352 9.844ZM63.1352 28.171C65.1032 28.171 66.5724 27.5082 67.5427 26.1825C68.513 24.8568 68.9982 22.9913 68.9982 20.586C68.9982 18.1807 68.513 16.3152 67.5427 14.9895C66.5724 13.6502 65.1032 12.9805 63.1352 12.9805C61.1399 12.9805 59.6502 13.6502 58.6662 14.9895C57.6959 16.3152 57.2107 18.1807 57.2107 20.586C57.2107 22.9913 57.6959 24.8568 58.6662 26.1825C59.6502 27.5082 61.1399 28.171 63.1352 28.171ZM86.478 9.844C88.0086 9.844 89.389 10.0968 90.619 10.6025C91.8626 11.0945 92.915 11.812 93.776 12.755C94.6506 13.6843 95.3203 14.8118 95.785 16.1375C96.2496 17.4495 96.482 18.9255 96.482 20.5655C96.482 22.2055 96.2496 23.6883 95.785 25.014C95.3203 26.3397 94.6506 27.4672 93.776 28.3965C92.915 29.3258 91.8626 30.0433 90.619 30.549C89.389 31.041 88.0086 31.287 86.478 31.287C84.9336 31.287 83.5396 31.041 82.296 30.549C81.066 30.0433 80.0136 29.3258 79.139 28.3965C78.2643 27.4672 77.5878 26.3397 77.1095 25.014C76.6448 23.6883 76.4125 22.2055 76.4125 20.5655C76.4125 18.9255 76.6448 17.4495 77.1095 16.1375C77.5878 14.8118 78.2643 13.6843 79.139 12.755C80.0136 11.812 81.066 11.0945 82.296 10.6025C83.5396 10.0968 84.9336 9.844 86.478 9.844ZM86.478 28.171C88.446 28.171 89.9151 27.5082 90.8855 26.1825C91.8558 24.8568 92.341 22.9913 92.341 20.586C92.341 18.1807 91.8558 16.3152 90.8855 14.9895C89.9151 13.6502 88.446 12.9805 86.478 12.9805C84.4826 12.9805 82.993 13.6502 82.009 14.9895C81.0386 16.3152 80.5535 18.1807 80.5535 20.586C80.5535 22.9913 81.0386 24.8568 82.009 26.1825C82.993 27.5082 84.4826 28.171 86.478 28.171ZM107.063 31.328C105.382 31.328 104.084 30.8565 103.168 29.9135C102.266 28.9705 101.815 27.6243 101.815 25.875V13.411H99.3959C99.1635 13.411 98.9654 13.3427 98.8014 13.206C98.651 13.0557 98.5759 12.837 98.5759 12.55V10.9305L101.958 10.459L102.86 4.2475C102.915 4.01517 103.018 3.8375 103.168 3.7145C103.332 3.57783 103.537 3.5095 103.783 3.5095H105.812V10.5H111.716V13.411H105.812V25.6085C105.812 26.4285 106.011 27.0435 106.407 27.4535C106.817 27.8498 107.336 28.048 107.965 28.048C108.334 28.048 108.648 28.0002 108.908 27.9045C109.181 27.8088 109.414 27.7063 109.605 27.597C109.796 27.474 109.96 27.3647 110.097 27.269C110.234 27.1733 110.357 27.1255 110.466 27.1255C110.603 27.1255 110.705 27.1597 110.773 27.228C110.855 27.2827 110.937 27.3783 111.019 27.515L112.208 29.442C111.552 30.0433 110.773 30.508 109.871 30.836C108.969 31.164 108.033 31.328 107.063 31.328ZM114.742 28.6015C114.742 28.2325 114.811 27.884 114.947 27.556C115.084 27.228 115.269 26.941 115.501 26.695C115.747 26.449 116.034 26.2577 116.362 26.121C116.69 25.9707 117.045 25.8955 117.428 25.8955C117.797 25.8955 118.145 25.9707 118.473 26.121C118.801 26.2577 119.088 26.449 119.334 26.695C119.58 26.941 119.772 27.228 119.908 27.556C120.059 27.884 120.134 28.2325 120.134 28.6015C120.134 28.9842 120.059 29.3395 119.908 29.6675C119.772 29.9955 119.58 30.2825 119.334 30.5285C119.088 30.7745 118.801 30.9658 118.473 31.1025C118.145 31.2392 117.797 31.3075 117.428 31.3075C117.045 31.3075 116.69 31.2392 116.362 31.1025C116.034 30.9658 115.747 30.7745 115.501 30.5285C115.269 30.2825 115.084 29.9955 114.947 29.6675C114.811 29.3395 114.742 28.9842 114.742 28.6015Z" fill="black"/>
</svg>
