<svg width="58" height="35" viewBox="0 0 58 35" fill="none" xmlns="http://www.w3.org/2000/svg">
<path d="M37.7959 23.2887H35.9252V29.6829C35.9252 29.8026 35.8222 29.9052 35.7021 29.9052H34.2605C34.1403 29.9052 34.0374 29.8026 34.0374 29.6829V23.2887H32.1495C32.098 23.2887 32.0294 23.2716 31.9951 23.2374C31.9607 23.2032 31.9264 23.1519 31.9264 23.0836V21.9552C31.9264 21.9039 31.9436 21.8355 31.9951 21.8013C32.0294 21.7671 32.098 21.7329 32.1495 21.75H37.7959C37.916 21.75 38.019 21.8355 38.019 21.9552V23.0836C38.019 23.2032 37.916 23.2887 37.7959 23.2887Z" fill="white"/>
<path d="M43.8027 29.8539C43.0647 29.9565 42.3096 30.0077 41.5716 29.9906C40.1471 29.9906 38.8943 29.6316 38.8943 27.6313V23.9897C38.8943 21.9894 40.1643 21.6474 41.5888 21.6474C42.3267 21.6303 43.0647 21.6816 43.8027 21.7842C43.9572 21.8013 44.0258 21.8697 44.0258 22.0065V23.0323C44.0258 23.152 43.9228 23.2545 43.8027 23.2545H41.4858C40.9709 23.2545 40.7821 23.4255 40.7821 24.0068V24.9984H43.7169C43.837 24.9984 43.94 25.101 43.94 25.2207V26.2636C43.94 26.3832 43.837 26.4858 43.7169 26.4858H40.7821V27.6484C40.7821 28.2126 40.9709 28.4007 41.4858 28.4007H43.8027C43.9228 28.4007 44.0258 28.5032 44.0258 28.6229V29.6487C44.0258 29.7684 43.9572 29.8368 43.8027 29.8539Z" fill="white"/>
<path d="M52.1092 29.9052H50.3587C50.2385 29.9223 50.1184 29.8539 50.0669 29.7342L48.5395 27.3407L47.1665 29.6829C47.0978 29.8197 47.012 29.9052 46.8919 29.9052H45.2615C45.2272 29.9052 45.1757 29.9052 45.1414 29.871C45.107 29.8368 45.0899 29.8026 45.0899 29.7513C45.0899 29.7171 45.107 29.7 45.107 29.6829L47.4926 25.7165L45.0727 21.9552C45.0555 21.9381 45.0555 21.9039 45.0555 21.8868C45.0555 21.8013 45.1414 21.7329 45.2272 21.75H47.0292C47.1493 21.75 47.2352 21.8526 47.3038 21.9552L48.7111 24.1778L50.0841 21.9552C50.1356 21.8355 50.2385 21.7671 50.3587 21.75H51.9891C52.0749 21.75 52.1607 21.8013 52.1607 21.8868C52.1607 21.9039 52.1436 21.9381 52.1436 21.9552L49.7408 25.7507L52.2465 29.6829C52.2637 29.7171 52.2809 29.7513 52.2809 29.7855C52.2637 29.8539 52.2122 29.9052 52.1092 29.9052Z" fill="white"/>
<path d="M29.2834 21.7671C29.1976 21.7671 29.1289 21.8184 29.1118 21.9039L27.5157 27.8023C27.4985 27.9219 27.4642 27.9732 27.3612 27.9732C27.2583 27.9732 27.2239 27.9219 27.2068 27.8023L25.6107 21.9039C25.5935 21.8184 25.5249 21.7671 25.4391 21.7671H23.8601C23.8086 21.7671 23.7572 21.7842 23.7228 21.8355C23.6885 21.8697 23.6713 21.921 23.6885 21.9723C23.6885 21.9723 25.645 28.7426 25.6622 28.811C25.9196 29.6145 26.5546 30.0078 27.3612 30.0078C28.1335 30.0419 28.8372 29.5461 29.0603 28.811C29.0946 28.7255 30.9996 21.9723 30.9996 21.9723C31.0168 21.921 30.9996 21.8697 30.9653 21.8355C30.931 21.8013 30.8795 21.7671 30.828 21.7671H29.2834Z" fill="white"/>
<path d="M20.359 16.2791H3.93474C3.33406 16.2791 2.78487 16.6039 2.49311 17.0997C2.18419 17.6126 2.16703 18.2452 2.44163 18.7581L4.0892 21.8697H1.10297C0.725399 21.8697 0.364991 22.0578 0.159044 22.3826C-0.0469032 22.7074 -0.0469034 23.1177 0.124719 23.4597L5.4107 33.41C5.59948 33.769 5.97705 33.9913 6.37179 33.9913C6.76652 33.9913 7.14409 33.769 7.33287 33.41L8.7745 30.7087L10.5765 34.111C10.8683 34.658 11.4518 35 12.0697 35C12.6875 35 13.271 34.658 13.5628 34.111L21.8007 18.6726C22.0753 18.1597 22.0581 17.5442 21.7492 17.0655C21.4746 16.5697 20.9426 16.2791 20.359 16.2791ZM13.0136 22.7929L9.40951 29.529C9.28937 29.7684 9.0491 29.9052 8.7745 29.9052C8.49991 29.9052 8.25963 29.7513 8.1395 29.529L4.58691 22.8613C4.48394 22.6561 4.48393 22.4168 4.60407 22.2116C4.72421 22.0065 4.94732 21.8868 5.17043 21.8868H12.4472C12.6703 21.8868 12.8763 21.9894 12.9793 22.1774C13.1166 22.3655 13.1166 22.6048 13.0136 22.7929Z" fill="white"/>
<path d="M1.35701 11.0742C1.06723 11.0742 0.922344 10.9223 0.922344 10.6183V3.9711C0.922344 3.67426 1.07077 3.52583 1.36761 3.52583H3.88021C4.68593 3.52583 5.30083 3.7202 5.72489 4.10892C6.15603 4.49765 6.37159 5.05247 6.37159 5.77338C6.37159 6.48723 6.15603 7.04205 5.72489 7.43784C5.30083 7.82657 4.68593 8.02094 3.88021 8.02094H1.79168V10.6183C1.79168 10.9223 1.64679 11.0742 1.35701 11.0742ZM1.79168 7.28942H3.77419C4.9333 7.28942 5.51286 6.78408 5.51286 5.77338C5.51286 4.75563 4.9333 4.24675 3.77419 4.24675H1.79168V7.28942ZM9.418 11.0954C8.91618 11.0954 8.48152 10.9859 8.11399 10.7668C7.74647 10.5477 7.46022 10.2402 7.25526 9.84442C7.05736 9.44156 6.95841 8.96802 6.95841 8.4238C6.95841 7.87958 7.05736 7.40957 7.25526 7.01378C7.46022 6.61091 7.74647 6.29993 8.11399 6.08083C8.48152 5.86173 8.91618 5.75218 9.418 5.75218C9.91274 5.75218 10.3439 5.86173 10.7114 6.08083C11.086 6.29993 11.3722 6.61091 11.5701 7.01378C11.7751 7.40957 11.8776 7.87958 11.8776 8.4238C11.8776 8.96802 11.7751 9.44156 11.5701 9.84442C11.3722 10.2402 11.086 10.5477 10.7114 10.7668C10.3439 10.9859 9.91274 11.0954 9.418 11.0954ZM9.418 10.4063C9.8986 10.4063 10.2838 10.2367 10.5736 9.89743C10.8634 9.55111 11.0082 9.0599 11.0082 8.4238C11.0082 7.78063 10.8634 7.28942 10.5736 6.95017C10.2838 6.61092 9.8986 6.44129 9.418 6.44129C8.93032 6.44129 8.54159 6.61092 8.25181 6.95017C7.9691 7.28942 7.82775 7.78063 7.82775 8.4238C7.82775 9.0599 7.9691 9.55111 8.25181 9.89743C8.54159 10.2367 8.93032 10.4063 9.418 10.4063ZM14.876 11.0742C14.6145 11.0742 14.4343 10.9399 14.3353 10.6713L12.7557 6.37768C12.685 6.19392 12.685 6.04903 12.7557 5.94301C12.8334 5.82993 12.9536 5.77338 13.1162 5.77338C13.2222 5.77338 13.307 5.79812 13.3706 5.8476C13.4413 5.89707 13.4978 5.98895 13.5402 6.12324L14.8972 9.99284L16.2966 6.12324C16.3815 5.89 16.5405 5.77338 16.7737 5.77338C16.9999 5.77338 17.1554 5.89 17.2402 6.12324L18.6184 10.0034L19.9966 6.10204C20.0461 5.97482 20.1026 5.89 20.1663 5.8476C20.2369 5.79812 20.3253 5.77338 20.4313 5.77338C20.6009 5.77338 20.7105 5.83699 20.7599 5.96421C20.8094 6.08437 20.8024 6.22219 20.7387 6.37768L19.1591 10.6713C19.0531 10.9399 18.8728 11.0742 18.6184 11.0742C18.3569 11.0742 18.1802 10.9399 18.0883 10.6713L16.7525 7.00318L15.4167 10.6713C15.3178 10.9399 15.1375 11.0742 14.876 11.0742ZM24.2583 11.0954C23.4455 11.0954 22.8024 10.8586 22.3288 10.3851C21.8553 9.9045 21.6185 9.25426 21.6185 8.4344C21.6185 7.90432 21.7245 7.43784 21.9366 7.03498C22.1486 6.62505 22.4384 6.31053 22.8059 6.09143C23.1805 5.86527 23.6116 5.75218 24.0993 5.75218C24.799 5.75218 25.3468 5.97835 25.7426 6.43069C26.1384 6.87596 26.3362 7.49085 26.3362 8.27537C26.3362 8.49448 26.2126 8.60403 25.9652 8.60403H22.456C22.4843 9.19065 22.6539 9.63945 22.9649 9.95044C23.2759 10.2544 23.707 10.4063 24.2583 10.4063C24.4916 10.4063 24.7283 10.378 24.9686 10.3215C25.2089 10.2579 25.4422 10.1483 25.6683 9.99284C25.8309 9.88683 25.9652 9.86562 26.0712 9.92923C26.1843 9.99284 26.2408 10.0918 26.2408 10.2261C26.2479 10.3533 26.1772 10.4664 26.0288 10.5653C25.7956 10.735 25.5164 10.8657 25.1913 10.9576C24.8732 11.0495 24.5622 11.0954 24.2583 11.0954ZM24.1205 6.38828C23.6328 6.38828 23.2476 6.54024 22.9649 6.84415C22.6822 7.14807 22.5161 7.54739 22.4666 8.04214H25.5941C25.5729 7.51912 25.4351 7.11273 25.1807 6.82295C24.9333 6.53317 24.5799 6.38828 24.1205 6.38828ZM28.0137 11.0742C27.7239 11.0742 27.579 10.9258 27.579 10.6289V6.20805C27.579 5.91827 27.7169 5.77338 27.9925 5.77338C28.2752 5.77338 28.4166 5.91827 28.4166 6.20805V6.76994C28.5579 6.44482 28.777 6.19745 29.0739 6.02782C29.3707 5.85113 29.7241 5.75571 30.134 5.74158C30.3602 5.72038 30.4804 5.83346 30.4945 6.08083C30.5157 6.3282 30.3885 6.46603 30.1128 6.4943L29.9432 6.5155C29.4555 6.55791 29.0845 6.7134 28.83 6.98197C28.5756 7.24348 28.4484 7.60394 28.4484 8.06334V10.6289C28.4484 10.9258 28.3035 11.0742 28.0137 11.0742ZM33.6383 11.0954C32.8255 11.0954 32.1823 10.8586 31.7088 10.3851C31.2353 9.9045 30.9985 9.25426 30.9985 8.4344C30.9985 7.90432 31.1045 7.43784 31.3165 7.03498C31.5286 6.62505 31.8184 6.31053 32.1859 6.09143C32.5605 5.86527 32.9916 5.75218 33.4793 5.75218C34.179 5.75218 34.7267 5.97835 35.1225 6.43069C35.5183 6.87596 35.7162 7.49085 35.7162 8.27537C35.7162 8.49448 35.5925 8.60403 35.3452 8.60403H31.836C31.8643 9.19065 32.0339 9.63945 32.3449 9.95044C32.6559 10.2544 33.087 10.4063 33.6383 10.4063C33.8715 10.4063 34.1083 10.378 34.3486 10.3215C34.5889 10.2579 34.8222 10.1483 35.0483 9.99284C35.2109 9.88683 35.3452 9.86562 35.4512 9.92923C35.5643 9.99284 35.6208 10.0918 35.6208 10.2261C35.6279 10.3533 35.5572 10.4664 35.4088 10.5653C35.1755 10.735 34.8964 10.8657 34.5712 10.9576C34.2532 11.0495 33.9422 11.0954 33.6383 11.0954ZM33.5005 6.38828C33.0128 6.38828 32.6276 6.54024 32.3449 6.84415C32.0622 7.14807 31.8961 7.54739 31.8466 8.04214H34.9741C34.9529 7.51912 34.8151 7.11273 34.5606 6.82295C34.3133 6.53317 33.9599 6.38828 33.5005 6.38828ZM38.9203 11.0954C38.4609 11.0954 38.0581 10.9859 37.7117 10.7668C37.3725 10.5477 37.1074 10.2402 36.9166 9.84442C36.7329 9.44156 36.641 8.96802 36.641 8.4238C36.641 7.87251 36.7329 7.39897 36.9166 7.00318C37.1074 6.60031 37.3725 6.29287 37.7117 6.08083C38.0581 5.86173 38.4609 5.75218 38.9203 5.75218C39.3232 5.75218 39.6766 5.84053 39.9805 6.01722C40.2915 6.19392 40.5212 6.43775 40.6696 6.74874V3.88629C40.6696 3.59651 40.8145 3.45162 41.1043 3.45162C41.387 3.45162 41.5283 3.59651 41.5283 3.88629V10.6289C41.5283 10.9258 41.387 11.0742 41.1043 11.0742C40.8216 11.0742 40.6802 10.9258 40.6802 10.6289V10.0777C40.5247 10.3957 40.2915 10.6466 39.9805 10.8304C39.6766 11.0071 39.3232 11.0954 38.9203 11.0954ZM39.1006 10.4063C39.5812 10.4063 39.9664 10.2367 40.2561 9.89743C40.5459 9.55111 40.6908 9.0599 40.6908 8.4238C40.6908 7.78063 40.5459 7.28942 40.2561 6.95017C39.9664 6.61092 39.5812 6.44129 39.1006 6.44129C38.6129 6.44129 38.2242 6.61092 37.9344 6.95017C37.6517 7.28942 37.5103 7.78063 37.5103 8.4238C37.5103 9.0599 37.6517 9.55111 37.9344 9.89743C38.2242 10.2367 38.6129 10.4063 39.1006 10.4063ZM48.4811 11.0954C48.0783 11.0954 47.7213 11.0071 47.4103 10.8304C47.0994 10.6466 46.8697 10.3957 46.7212 10.0777V10.6289C46.7212 10.9258 46.5799 11.0742 46.2972 11.0742C46.0145 11.0742 45.8731 10.9258 45.8731 10.6289V3.88629C45.8731 3.59651 46.0145 3.45162 46.2972 3.45162C46.587 3.45162 46.7318 3.59651 46.7318 3.88629V6.73813C46.8803 6.43422 47.11 6.19392 47.421 6.01722C47.7319 5.84053 48.0853 5.75218 48.4811 5.75218C48.9405 5.75218 49.3398 5.86173 49.6791 6.08083C50.0254 6.29287 50.2905 6.60031 50.4742 7.00318C50.6651 7.39897 50.7605 7.87251 50.7605 8.4238C50.7605 8.96802 50.6651 9.44156 50.4742 9.84442C50.2905 10.2402 50.0254 10.5477 49.6791 10.7668C49.3398 10.9859 48.9405 11.0954 48.4811 11.0954ZM48.3009 10.4063C48.7815 10.4063 49.1667 10.2367 49.4565 9.89743C49.7462 9.55111 49.8911 9.0599 49.8911 8.4238C49.8911 7.78063 49.7462 7.28942 49.4565 6.95017C49.1667 6.61092 48.7815 6.44129 48.3009 6.44129C47.8203 6.44129 47.4351 6.61092 47.1453 6.95017C46.8555 7.28942 46.7106 7.78063 46.7106 8.4238C46.7106 9.0599 46.8555 9.55111 47.1453 9.89743C47.4351 10.2367 47.8203 10.4063 48.3009 10.4063ZM53.1265 12.9825C52.9639 12.9825 52.8544 12.9189 52.7978 12.7917C52.7413 12.6715 52.7448 12.5337 52.8084 12.3782L53.4551 10.9152L51.5044 6.37768C51.4337 6.21512 51.4302 6.07376 51.4938 5.95361C51.5645 5.83346 51.6952 5.77338 51.8861 5.77338C52.084 5.77338 52.2289 5.88647 52.3207 6.11264L53.9216 10.0246L55.533 6.11264C55.5896 5.98542 55.6497 5.89707 55.7133 5.8476C55.7769 5.79812 55.8688 5.77338 55.9889 5.77338C56.1515 5.77338 56.261 5.83346 56.3176 5.95361C56.3741 6.07376 56.3706 6.21159 56.307 6.36708L53.5929 12.6433C53.5364 12.7705 53.4728 12.8588 53.4021 12.9083C53.3385 12.9578 53.2466 12.9825 53.1265 12.9825Z" fill="white"/>
</svg>
